<svg width="672" height="374" viewBox="0 0 672 374" fill="none" xmlns="http://www.w3.org/2000/svg">
<path d="M0 174.985C18.8582 126.775 33.2463 77.7185 43.1643 27.8166L93.2434 19.5701L86.1191 97.1718L105.606 25.4907L153.799 17.0327C148.072 62.9876 145.208 104.431 145.208 141.365C145.208 148.695 145.278 155.954 145.418 163.144L102.463 170.756L110.006 78.1414L82.557 180.694L59.5081 183.866L73.3375 53.6133L43.5834 169.064L0 174.985Z" fill="#1F2E98"/>
<path d="M130.34 165.618C144.951 127.729 156.779 91.204 165.825 56.043L211.15 48.3136C205.981 78.928 203.645 115.15 204.142 156.979L172.534 164.406L174.77 145.461L164.781 147.431L161.65 160.768L130.34 165.618ZM177.156 125.153L184.014 67.8644H183.865L169.85 126.517L177.156 125.153Z" fill="#1F2E98"/>
<path d="M218.362 46.4404L250.326 40.4937C241.406 74.811 234.53 106.465 229.698 135.455L262.405 130.437L259.618 165.002C242.769 166.489 221.398 170.763 195.505 177.825L218.362 46.4404Z" fill="#1F2E98"/>
<path d="M330.378 14.4258C345.564 14.4258 356.309 22.8217 362.612 39.6137C365.907 48.2943 367.555 57.8287 367.555 68.217C367.555 78.1783 366.05 88.9935 363.042 100.662C357.741 120.585 348.572 138.942 335.535 155.734C319.633 176.226 302.8 186.472 285.035 186.472C269.706 186.472 258.818 178.076 252.371 161.284C249.219 153.031 247.644 143.781 247.644 133.535C247.644 123.431 249.219 112.474 252.371 100.662C257.672 80.5975 266.769 62.169 279.663 45.377C295.565 24.7429 312.47 14.4258 330.378 14.4258ZM322.642 67.3631C314.762 67.3631 306.74 73.7669 298.574 86.5743C291.983 96.6779 287.399 106.568 284.82 116.245C283.531 121.368 282.886 125.993 282.886 130.12C282.886 135.954 284.319 140.721 287.184 144.421C290.479 148.548 295.064 150.611 300.937 150.611C308.96 150.611 316.195 146.413 322.642 138.017C327.799 131.329 331.524 123.431 333.816 114.324C336.538 103.651 337.111 93.1203 335.535 82.7321C333.816 72.4861 329.518 67.3631 322.642 67.3631Z" fill="#1F2E98"/>
<path d="M402.435 56.1341C411.436 56.1341 418.056 60.9652 422.297 70.6273L407.628 86.5314C405.637 84.4792 403.343 83.4532 400.747 83.4532C396.16 83.4532 391.4 87.3437 386.467 95.1247C382.399 101.538 379.76 107.523 378.548 113.081C377.942 115.732 377.639 118.126 377.639 120.263C377.639 125.992 379.76 129.925 384 132.063C385.385 132.747 386.856 133.089 388.414 133.089C392.915 133.089 397.631 129.797 402.565 123.213L406.719 138.476C398.151 147.882 389.453 152.584 380.625 152.584C371.624 152.584 365.047 147.882 360.893 138.476C358.383 133.004 357.128 126.89 357.128 120.135C357.128 115.176 357.777 109.917 359.075 104.359C361.672 92.987 366.605 82.5981 373.875 73.1925C382.616 61.8202 392.136 56.1341 402.435 56.1341Z" fill="#1F2E98"/>
<path d="M393.623 166.082C411.835 119.623 426.578 74.8372 437.852 31.7238L494.345 22.2462C487.903 59.7847 484.991 104.199 485.611 155.489L446.214 164.595L449.002 141.366L436.551 143.782L432.648 160.135L393.623 166.082ZM451.975 116.464L460.523 46.2188H460.337L442.869 118.137L451.975 116.464Z" fill="#1F2E98"/>
<path d="M241.632 177.918L223.6 157.482L351.027 147.864L377.475 106.991L465.232 139.449L672.001 236.824H527.743L646.756 373.868L170.705 264.473H318.569L241.632 177.918Z" fill="url(#paint0_linear_214_93)"/>
<path d="M24.0439 160.559C42.9022 112.349 57.2903 63.2926 67.2083 13.3907L117.287 5.1442L110.163 82.7459L129.65 11.0648L177.843 2.60681C172.116 48.5617 169.252 90.0056 169.252 126.939C169.252 134.269 169.322 141.529 169.462 148.718L126.507 156.33L134.05 63.7155L106.601 166.268L83.5521 169.44L97.3814 39.1874L67.6274 154.638L24.0439 160.559Z" fill="#FF5379"/>
<path d="M154.381 151.192C168.992 113.303 180.82 76.7782 189.866 41.6172L235.191 33.8878C230.022 64.5022 227.686 100.724 228.183 142.554L196.575 149.98L198.811 131.035L188.822 133.006L185.691 146.342L154.381 151.192ZM201.197 110.727L208.055 53.4386H207.906L193.891 112.091L201.197 110.727Z" fill="#FF5379"/>
<path d="M242.408 32.0145L274.372 26.0678C265.452 60.3851 258.576 92.0388 253.744 121.029L286.451 116.011L283.663 150.576C266.815 152.063 245.444 156.337 219.551 163.399L242.408 32.0145Z" fill="#FF5379"/>
<path d="M354.42 0C369.606 0 380.351 8.39598 386.654 25.188C389.949 33.8685 391.597 43.403 391.597 53.7912C391.597 63.7526 390.092 74.5677 387.084 86.2367C381.783 106.159 372.614 124.517 359.577 141.309C343.675 161.801 326.842 172.047 309.077 172.047C293.748 172.047 282.86 163.651 276.413 146.859C273.261 138.605 271.686 129.355 271.686 119.109C271.686 109.005 273.261 98.048 276.413 86.2367C281.714 66.1717 290.811 47.7433 303.705 30.9513C319.607 10.3171 336.512 0 354.42 0ZM346.684 52.9374C338.804 52.9374 330.782 59.3411 322.616 72.1485C316.025 82.2522 311.441 92.1424 308.862 101.819C307.573 106.942 306.928 111.567 306.928 115.694C306.928 121.528 308.361 126.296 311.226 129.995C314.521 134.122 319.106 136.186 324.979 136.186C333.002 136.186 340.237 131.988 346.684 123.592C351.841 116.903 355.566 109.005 357.858 99.898C360.58 89.2251 361.153 78.6946 359.577 68.3063C357.858 58.0604 353.56 52.9374 346.684 52.9374Z" fill="#FF5379"/>
<path d="M327.308 243.919H316.5C315.385 243.919 314.571 243.663 314.06 243.152C313.549 242.64 313.293 241.827 313.293 240.711V195.53C313.293 194.925 313.363 194.414 313.502 193.996C313.688 193.577 313.944 193.229 314.269 192.95L323.264 185.35C323.496 185.164 323.798 185.025 324.17 184.932C324.588 184.792 325.03 184.722 325.495 184.722H356.592C357.708 184.722 358.521 184.978 359.032 185.489C359.544 186.001 359.799 186.814 359.799 187.93V196.227C359.799 196.831 359.706 197.343 359.52 197.761C359.381 198.179 359.149 198.528 358.823 198.807L351.014 205.291C352.083 205.291 352.873 205.547 353.385 206.058C353.896 206.569 354.152 207.383 354.152 208.498V216.865C354.152 217.47 354.059 217.981 353.873 218.399C353.733 218.818 353.501 219.166 353.175 219.445L344.111 226.976C343.925 227.161 343.623 227.324 343.205 227.464C342.833 227.603 342.415 227.673 341.95 227.673H339.509V233.111C339.509 233.716 339.416 234.227 339.231 234.645C339.091 235.064 338.859 235.412 338.533 235.691L329.469 243.221C329.283 243.407 328.981 243.57 328.563 243.709C328.191 243.849 327.772 243.919 327.308 243.919ZM336.302 235.621C337.185 235.621 337.813 235.435 338.185 235.064C338.603 234.645 338.812 233.994 338.812 233.111V219.376H350.944C351.827 219.376 352.455 219.19 352.827 218.818C353.245 218.399 353.454 217.749 353.454 216.865V208.498C353.454 207.615 353.245 206.988 352.827 206.616C352.455 206.198 351.827 205.988 350.944 205.988H338.812V198.737H356.592C357.475 198.737 358.103 198.551 358.475 198.179C358.893 197.761 359.102 197.11 359.102 196.227V187.93C359.102 187.047 358.893 186.419 358.475 186.047C358.103 185.629 357.475 185.42 356.592 185.42H325.495C324.612 185.42 323.961 185.629 323.542 186.047C323.171 186.419 322.985 187.047 322.985 187.93V233.111C322.985 233.994 323.171 234.645 323.542 235.064C323.961 235.435 324.612 235.621 325.495 235.621H336.302ZM330.585 229.346V191.695H352.827V192.392H331.282V212.333H347.179V213.031H331.282V229.346H330.585Z" fill="#FF5379"/>
<path d="M398.62 243.919H366.268C365.152 243.919 364.339 243.663 363.828 243.152C363.316 242.64 363.061 241.827 363.061 240.711V195.53C363.061 194.925 363.13 194.414 363.27 193.996C363.456 193.577 363.711 193.229 364.037 192.95L373.031 185.35C373.264 185.164 373.566 185.025 373.938 184.932C374.356 184.792 374.798 184.722 375.262 184.722H407.615C408.73 184.722 409.544 184.978 410.055 185.489C410.566 186.001 410.822 186.814 410.822 187.93V196.088C410.822 196.692 410.729 197.203 410.543 197.621C410.404 198.04 410.171 198.388 409.846 198.667L403.85 203.618C404.314 203.85 404.64 204.199 404.826 204.664C405.058 205.128 405.174 205.733 405.174 206.476V213.937C405.174 214.541 405.081 215.053 404.895 215.471C404.756 215.889 404.524 216.238 404.198 216.517L397.993 221.746H407.615C408.73 221.746 409.544 222.002 410.055 222.513C410.566 223.024 410.822 223.838 410.822 224.954V233.111C410.822 233.716 410.729 234.227 410.543 234.645C410.404 235.064 410.171 235.412 409.846 235.691L400.782 243.221C400.596 243.407 400.294 243.57 399.875 243.709C399.503 243.849 399.085 243.919 398.62 243.919ZM407.615 235.621C408.498 235.621 409.125 235.435 409.497 235.064C409.916 234.645 410.125 233.994 410.125 233.111V224.954C410.125 224.07 409.916 223.443 409.497 223.071C409.125 222.653 408.498 222.443 407.615 222.443H388.371V216.447H401.967C402.85 216.447 403.478 216.261 403.85 215.889C404.268 215.471 404.477 214.82 404.477 213.937V206.476C404.477 205.593 404.268 204.966 403.85 204.594C403.478 204.176 402.85 203.966 401.967 203.966H388.371V198.598H407.615C408.498 198.598 409.125 198.412 409.497 198.04C409.916 197.621 410.125 196.971 410.125 196.088V187.93C410.125 187.047 409.916 186.419 409.497 186.047C409.125 185.629 408.498 185.42 407.615 185.42H375.262C374.379 185.42 373.728 185.629 373.31 186.047C372.938 186.419 372.752 187.047 372.752 187.93V233.111C372.752 233.994 372.938 234.645 373.31 235.064C373.728 235.435 374.379 235.621 375.262 235.621H407.615ZM403.85 228.649V229.346H380.352V191.695H403.85V192.392H381.05V209.893H398.202V210.59H381.05V228.649H403.85Z" fill="#FF5379"/>
<path d="M417.3 243.919C416.184 243.919 415.371 243.663 414.859 243.152C414.348 242.64 414.092 241.827 414.092 240.711V232.553C414.092 231.949 414.162 231.438 414.302 231.02C414.488 230.601 414.743 230.253 415.069 229.974L422.041 224.117C419.577 223.373 417.625 222.118 416.184 220.352C414.79 218.539 414.092 215.959 414.092 212.612V205.291C414.092 203.199 414.441 201.34 415.138 199.713C415.836 198.086 416.835 196.715 418.137 195.599L427.201 187.999C428.456 186.977 430.013 186.187 431.872 185.629C433.732 185.025 435.847 184.722 438.217 184.722H457.74C458.856 184.722 459.669 184.978 460.18 185.489C460.692 186.001 460.947 186.814 460.947 187.93V196.227C460.947 196.831 460.854 197.343 460.669 197.761C460.529 198.179 460.297 198.528 459.971 198.807L453.696 204.036C456.625 204.687 458.972 205.919 460.738 207.732C462.551 209.498 463.458 212.264 463.458 216.029V223.35C463.458 225.442 463.109 227.301 462.412 228.928C461.714 230.555 460.692 231.926 459.344 233.042L450.349 240.572C449.048 241.641 447.467 242.454 445.608 243.012C443.749 243.616 441.657 243.919 439.333 243.919H417.3ZM448.327 235.621C452.79 235.621 456.299 234.576 458.856 232.484C461.459 230.346 462.76 227.301 462.76 223.35V216.029C462.76 212.124 461.761 209.335 459.762 207.662C457.763 205.988 455.137 204.919 451.883 204.454L441.494 203.06C440.89 203.013 440.425 202.781 440.1 202.363C439.774 201.944 439.612 201.433 439.612 200.829C439.612 200.224 439.774 199.736 440.1 199.365C440.425 198.946 440.89 198.737 441.494 198.737H457.74C458.623 198.737 459.251 198.551 459.623 198.179C460.041 197.761 460.25 197.11 460.25 196.227V187.93C460.25 187.047 460.041 186.419 459.623 186.047C459.251 185.629 458.623 185.42 457.74 185.42H438.217C433.708 185.42 430.176 186.489 427.619 188.627C425.062 190.719 423.784 193.74 423.784 197.691V205.012C423.784 208.917 424.76 211.706 426.713 213.379C428.711 215.053 431.338 216.122 434.592 216.587L445.05 218.051C445.655 218.097 446.096 218.306 446.375 218.678C446.7 219.05 446.863 219.631 446.863 220.421C446.863 220.979 446.7 221.467 446.375 221.886C446.096 222.257 445.655 222.443 445.05 222.443H426.294C425.411 222.443 424.76 222.653 424.342 223.071C423.97 223.443 423.784 224.07 423.784 224.954V233.111C423.784 233.994 423.97 234.645 424.342 235.064C424.76 235.435 425.411 235.621 426.294 235.621H448.327ZM453.975 191.695V192.392H438.496C436.544 192.392 434.987 192.927 433.825 193.996C432.662 195.065 432.081 196.413 432.081 198.04V203.757C432.081 205.384 432.407 206.523 433.058 207.174C433.708 207.824 434.568 208.243 435.637 208.429L450.349 211.427C451.744 211.706 452.883 212.31 453.766 213.24C454.695 214.169 455.16 215.843 455.16 218.26V222.304C455.16 224.349 454.463 226.046 453.069 227.394C451.674 228.695 449.792 229.346 447.421 229.346H430.059V228.649H447.421C449.559 228.649 451.256 228.068 452.511 226.906C453.812 225.697 454.463 224.163 454.463 222.304V218.26C454.463 216.075 454.068 214.588 453.278 213.798C452.534 212.961 451.511 212.403 450.21 212.124L435.498 209.126C434.289 208.894 433.29 208.429 432.5 207.732C431.756 206.988 431.384 205.663 431.384 203.757V198.04C431.384 196.18 432.035 194.67 433.336 193.508C434.638 192.299 436.358 191.695 438.496 191.695H453.975Z" fill="#FF5379"/>
<path d="M491.085 243.919H479.789C478.674 243.919 477.86 243.663 477.349 243.152C476.838 242.64 476.582 241.827 476.582 240.711V207.174H467.03C465.914 207.174 465.101 206.918 464.589 206.407C464.078 205.895 463.822 205.082 463.822 203.966V195.53C463.822 194.925 463.892 194.414 464.032 193.996C464.218 193.577 464.473 193.229 464.799 192.95L473.793 185.35C474.026 185.164 474.328 185.025 474.7 184.932C475.118 184.792 475.559 184.722 476.024 184.722H512.839C513.955 184.722 514.768 184.978 515.279 185.489C515.791 186.001 516.046 186.814 516.046 187.93V196.366C516.046 196.971 515.953 197.482 515.767 197.9C515.628 198.319 515.395 198.667 515.07 198.946L506.006 206.476C505.82 206.662 505.518 206.825 505.1 206.965C504.728 207.104 504.309 207.174 503.844 207.174H503.287V233.111C503.287 233.716 503.194 234.227 503.008 234.645C502.868 235.064 502.636 235.412 502.311 235.691L493.246 243.221C493.06 243.407 492.758 243.57 492.34 243.709C491.968 243.849 491.55 243.919 491.085 243.919ZM500.079 235.621C500.962 235.621 501.59 235.435 501.962 235.064C502.38 234.645 502.589 233.994 502.589 233.111V198.876H512.839C513.722 198.876 514.35 198.691 514.721 198.319C515.14 197.9 515.349 197.25 515.349 196.366V187.93C515.349 187.047 515.14 186.419 514.721 186.047C514.35 185.629 513.722 185.42 512.839 185.42H476.024C475.141 185.42 474.49 185.629 474.072 186.047C473.7 186.419 473.514 187.047 473.514 187.93V196.366C473.514 197.25 473.7 197.9 474.072 198.319C474.49 198.691 475.141 198.876 476.024 198.876H486.274V233.111C486.274 233.994 486.46 234.645 486.832 235.064C487.25 235.435 487.901 235.621 488.784 235.621H500.079ZM494.083 229.346V192.392H479.789V191.695H509.074V192.392H494.78V229.346H494.083Z" fill="#FF5379"/>
<path d="M422.375 282.818C422.375 284.885 421.894 286.352 420.932 287.217C419.995 288.083 418.432 288.516 416.244 288.516H409.392V263.271H415.811C417.951 263.271 419.514 263.703 420.499 264.569C421.509 265.434 422.014 266.877 422.014 268.897V270.952C422.014 272.804 421.353 274.198 420.031 275.136C421.593 276.001 422.375 277.48 422.375 279.572V282.818ZM418.877 268.572C418.877 267.658 418.66 266.997 418.227 266.589C417.819 266.18 417.157 265.975 416.244 265.975H412.529V273.946H416.244C416.989 273.946 417.614 273.705 418.119 273.224C418.624 272.744 418.877 272.106 418.877 271.313V268.572ZM419.237 279.247C419.237 278.454 418.997 277.829 418.516 277.372C418.035 276.891 417.398 276.651 416.604 276.651H412.529V285.811H416.568C417.482 285.811 418.155 285.607 418.588 285.198C419.021 284.765 419.237 284.092 419.237 283.178V279.247Z" fill="#FF5379"/>
<path d="M427.984 288.516V263.271H439.813V265.903H431.122V274.162H438.912V276.795H431.122V285.883H439.813V288.516H427.984Z" fill="#FF5379"/>
<path d="M451.233 278.057H448.023V288.516H444.886V263.271H451.341C453.385 263.271 454.924 263.727 455.958 264.641C457.015 265.531 457.544 266.949 457.544 268.897V272.359C457.544 275.076 456.463 276.771 454.299 277.444L459.312 288.516H455.885L451.233 278.057ZM454.407 268.572C454.407 267.658 454.19 266.997 453.758 266.589C453.349 266.18 452.688 265.975 451.774 265.975H448.023V275.352H451.774C452.688 275.352 453.349 275.148 453.758 274.739C454.19 274.306 454.407 273.633 454.407 272.72V268.572Z" fill="#FF5379"/>
<path d="M463.478 288.516V263.271H466.616V285.775H474.658V288.516H463.478Z" fill="#FF5379"/>
<path d="M476.683 288.516V285.883H479.208V265.903H476.683V263.271H484.87V265.903H482.346V285.883H484.87V288.516H476.683Z" fill="#FF5379"/>
<path d="M497.867 288.516L492.349 265.939V288.516H489.428V263.271H494.549L500.103 285.847V263.271H503.024V288.516H497.867Z" fill="#FF5379"/>
<path d="M426.479 41.7082C435.479 41.7082 442.1 46.5392 446.341 56.2014L431.671 72.1054C429.681 70.0533 427.387 69.0272 424.791 69.0272C420.204 69.0272 415.444 72.9177 410.511 80.6987C406.443 87.1116 403.804 93.097 402.592 98.6549C401.986 101.306 401.683 103.7 401.683 105.837C401.683 111.566 403.804 115.499 408.044 117.637C409.429 118.321 410.9 118.663 412.458 118.663C416.959 118.663 421.675 115.371 426.609 108.787L430.763 124.05C422.195 133.456 413.497 138.158 404.669 138.158C395.668 138.158 389.091 133.456 384.937 124.05C382.427 118.578 381.172 112.464 381.172 105.709C381.172 100.75 381.821 95.4912 383.119 89.9333C385.716 78.5611 390.649 68.1721 397.919 58.7665C406.66 47.3943 416.18 41.7082 426.479 41.7082Z" fill="#FF5379"/>
<path d="M417.665 151.656C435.877 105.197 450.62 60.4113 461.894 17.2978L518.387 7.82031C511.945 45.3587 509.033 89.773 509.653 141.063L470.256 150.169L473.044 126.94L460.593 129.356L456.69 145.709L417.665 151.656ZM476.017 102.038L484.565 31.7929H484.379L466.911 103.711L476.017 102.038Z" fill="#FF5379"/>
<defs>
<linearGradient id="paint0_linear_214_93" x1="389" y1="182" x2="533" y2="353.5" gradientUnits="userSpaceOnUse">
<stop offset="0.464869" stop-color="#1F2E98"/>
<stop offset="1" stop-color="#1F2E98" stop-opacity="0"/>
</linearGradient>
</defs>
</svg>
