<svg width="3040" height="4061" viewBox="0 0 3040 4061" fill="none" xmlns="http://www.w3.org/2000/svg">
<path fill-rule="evenodd" clip-rule="evenodd" d="M2356 3719.05H2136.44H2064.67L1701.56 2824.06C1672 2748.07 1591.78 2705.86 1511.56 2722.74C1448.22 2722.74 1384.89 2760.74 1359.55 2824.06L979.555 3719.05H907.778H688.222C629.111 3719.05 586.889 3659.95 608 3605.06L1444 1544.91C1456.67 1511.13 1490.44 1494.25 1520 1494.25C1549.56 1494.25 1583.33 1511.13 1596 1544.91L2432 3605.06C2457.33 3659.95 2415.11 3719.05 2356 3719.05ZM1524.22 3292.66L1697.33 3719.05H1342.67L1524.22 3292.66ZM1718.44 928.549C1710 907.441 1710 886.333 1718.44 865.224L1967.56 244.645C1997.11 172.877 1980.22 84.2229 1916.89 37.7847C1891.56 16.6765 1857.78 8.23339 1828.22 4.01182C1756.44 -12.8748 1688.89 25.12 1659.33 88.4445L1520 443.061L1376.44 92.666C1351.11 25.12 1279.33 -8.65321 1207.56 8.23339C1178 12.455 1148.44 20.8984 1118.89 42.0066C1055.56 88.4445 1038.67 177.099 1068.22 248.866L1317.33 869.446C1325.78 890.555 1325.78 911.663 1317.33 932.771L156.221 3803.48C105.556 3925.91 198.444 4061 329.333 4061H422.222H903.555H2132.22H2617.78H2706.44C2837.33 4061 2930.22 3925.91 2879.55 3803.48L1718.44 928.549ZM337.778 1633.56C337.778 1540.69 261.778 1464.7 168.889 1464.7C75.9995 1464.7 0 1540.69 0 1633.56C0 1726.44 75.9995 1802.43 168.889 1802.43C261.778 1802.43 337.778 1726.44 337.778 1633.56ZM2702.22 1633.56C2702.22 1540.69 2778.22 1464.7 2871.11 1464.7C2964 1464.7 3040 1540.69 3040 1633.56C3040 1726.44 2964 1802.43 2871.11 1802.43C2778.22 1802.43 2702.22 1726.44 2702.22 1633.56ZM2596.67 797.678C2664.22 730.132 2664.22 624.592 2596.67 557.045C2529.11 489.499 2423.56 489.499 2356 557.045C2288.44 624.592 2288.44 730.132 2356 797.678C2423.56 865.224 2529.11 865.224 2596.67 797.678ZM683.999 557.045C751.555 624.592 751.555 730.132 683.999 797.678C616.443 865.224 510.888 865.224 443.333 797.678C375.778 730.132 375.778 624.592 443.333 557.045C510.888 489.499 616.443 489.499 683.999 557.045Z" fill="url(#paint0_linear_241_3)"/>
<defs>
<linearGradient id="paint0_linear_241_3" x1="1520" y1="-630" x2="1520" y2="5091.5" gradientUnits="userSpaceOnUse">
<stop stop-color="#444444"/>
<stop offset="1" stop-color="#444444" stop-opacity="0"/>
</linearGradient>
</defs>
</svg>
